<svg id="Group_33106" data-name="Group 33106" xmlns="http://www.w3.org/2000/svg" width="989.923" height="1109.811" viewBox="0 0 989.923 1109.811">
  <path id="Path_11" data-name="Path 11" d="M0,0,32.4,18.709,32.792,450.9.388,432.188Z" transform="translate(530.627 149.363) rotate(-30)" fill="#f3f3f4"/>
  <path id="Path_15" data-name="Path 15" d="M0,0,32.4,18.709,32.792,450.9.388,432.188Z" transform="translate(714.265 523.197) rotate(-30)" fill="#f3f3f4"/>
  <path id="Path_16" data-name="Path 16" d="M0,0,32.4,18.709,32.792,450.9.388,432.188Z" transform="translate(188.671 302.447) rotate(-30)" fill="#f3f3f4"/>
  <path id="Path_17" data-name="Path 17" d="M0,0,32.4,18.709,32.792,450.9.388,432.188Z" transform="translate(194.678 682.377) rotate(-30)" fill="#f3f3f4"/>
  <path id="Path_12" data-name="Path 12" d="M0,0,25.3,14.609,25.693,446.8.388,432.188Z" transform="translate(426.775 362.604) rotate(-30)" fill="#f3f3f4"/>
  <path id="Path_19" data-name="Path 19" d="M0,0,25.3,14.609,25.693,446.8.388,432.188Z" transform="translate(6.007 180.352) rotate(-30)" fill="#f3f3f4"/>
  <path id="Path_7471" data-name="Path 7471" d="M0,0,12.3,7.1,17.25,251.182l-12.3-7.1Z" transform="translate(33.343 585.021) rotate(-30)" fill="#f3f3f4"/>
  <path id="Path_13" data-name="Path 13" d="M0,0,11.1,6.411,11.493,438.6l-11.1-6.411Z" transform="translate(397.207 652.431) rotate(-30)" fill="#f3f3f4"/>
  <path id="Path_20" data-name="Path 20" d="M0,0,11.1,6.411,11.493,438.6l-11.1-6.411Z" transform="translate(367.173 58.548) rotate(-30)" fill="#f3f3f4"/>
  <path id="Path_14" data-name="Path 14" d="M0,0,4,2.312,4.393,434.5l-4-2.312Z" transform="translate(641.224 733.523) rotate(-30)" fill="#f3f3f4"/>
  <path id="Path_7472" data-name="Path 7472" d="M0,0,4,2.312,4.393,434.5l-4-2.312Z" transform="translate(768.868 351.954) rotate(-30)" fill="#f3f3f4"/>
  <path id="Path_21" data-name="Path 21" d="M0,0,4,2.312,4.393,434.5l-4-2.312Z" transform="translate(145.122 2.197) rotate(-30)" fill="#f3f3f4"/>
  <path id="Path_18" data-name="Path 18" d="M0,0,4,2.312,4.393,434.5l-4-2.312Z" transform="translate(0 346.085) rotate(-30)" fill="#f3f3f4"/>
</svg>
